<svg xmlns="http://www.w3.org/2000/svg" viewBox="0 0 512 512">
  <defs>
    <linearGradient id="background" x1="64" y1="32" x2="448" y2="480" gradientUnits="userSpaceOnUse">
      <stop stop-color="#42E0AA"/>
      <stop offset="1" stop-color="#11825F"/>
    </linearGradient>
  </defs>
  <rect width="512" height="512" rx="120" fill="#07100E"/>
  <rect x="42" y="42" width="428" height="428" rx="104" fill="url(#background)"/>
  <path d="M142 179c0-22.1 17.9-40 40-40h148c22.1 0 40 17.9 40 40v154c0 22.1-17.9 40-40 40H182c-22.1 0-40-17.9-40-40V179Z" fill="#09241C"/>
  <circle cx="313" cy="207" r="37" fill="#42E0AA"/>
  <path d="m169 331 75-82 47 49 28-31 51 64H169Z" fill="#42E0AA"/>
  <path d="M256 98v55m0-55-27 27m27-27 27 27" fill="none" stroke="#09241C" stroke-width="22" stroke-linecap="round" stroke-linejoin="round"/>
</svg>
